<?xml version="1.0" standalone="no"?>
<!DOCTYPE svg PUBLIC "-//W3C//DTD SVG 20010904//EN"
 "http://www.w3.org/TR/2001/REC-SVG-20010904/DTD/svg10.dtd">
<svg version="1.0" xmlns="http://www.w3.org/2000/svg"
 width="441.000000pt" height="441.000000pt" viewBox="0 0 441.000000 441.000000"
 preserveAspectRatio="xMidYMid meet">
<metadata>
Created by potrace 1.11, written by Peter Selinger 2001-2013
</metadata>
<g transform="translate(0.000000,441.000000) scale(0.100000,-0.100000)"
fill="#000000" stroke="none">
<path d="M2000 4149 c-228 -29 -426 -90 -645 -199 -239 -119 -432 -266 -596
-453 -527 -603 -643 -1441 -298 -2156 32 -68 58 -125 57 -126 -2 -1 -102 -68
-223 -150 -249 -168 -230 -154 -224 -159 6 -6 1210 -238 1214 -234 2 1 26 122
55 268 28 146 53 273 56 283 5 16 -10 17 -225 17 -127 0 -231 2 -231 5 0 3 43
91 96 196 l95 191 -35 81 c-67 158 -96 304 -96 483 0 323 119 620 344 853 176
183 401 309 629 354 l62 12 91 179 91 179 90 -174 89 -174 63 -14 c42 -9 66
-10 70 -3 3 6 39 164 80 352 61 280 72 343 61 350 -15 9 -100 25 -212 40 -87
11 -367 11 -458 -1z"/>
<path d="M3040 3828 c0 -2 -49 -274 -110 -603 -60 -329 -108 -600 -107 -602 2
-2 97 60 211 137 113 77 210 140 214 140 12 0 89 -137 128 -229 61 -141 86
-257 91 -428 8 -225 -22 -385 -104 -565 l-37 -80 87 -174 c48 -96 87 -176 87
-179 0 -3 -105 -5 -234 -5 l-235 0 -78 -56 c-131 -94 -314 -175 -458 -203 -33
-7 -70 -14 -82 -17 -23 -4 -23 -5 -23 -194 l0 -190 489 0 489 0 59 44 c663
499 941 1376 686 2171 -41 128 -140 341 -207 444 -25 39 -46 73 -46 75 0 2 90
63 200 137 109 74 199 136 200 139 0 5 -439 92 -1192 237 -16 3 -28 3 -28 1z"/>
<path d="M1617 2482 c-329 -648 -597 -1181 -597 -1185 0 -4 236 -7 525 -7
l525 0 0 -380 0 -380 -903 0 c-900 0 -927 -1 -927 -31 0 -4 7 -15 16 -23 14
-14 208 -16 1983 -16 2124 0 2003 -3 1986 50 -6 20 -8 20 -946 20 l-939 0 0
380 0 380 540 0 c297 0 540 4 540 8 0 11 -1186 2342 -1197 2353 -6 6 -232
-429 -606 -1169z"/>
<path d="M1965 968 c-3 -7 -25 -89 -50 -183 -25 -93 -48 -178 -51 -188 -5 -16
1 -18 78 -15 l83 3 3 191 2 192 -22 6 c-33 8 -38 8 -43 -6z"/>
<path d="M1798 345 c-8 -36 -12 -67 -9 -69 18 -11 186 -37 307 -47 293 -24
661 38 914 154 l55 25 -626 1 -625 1 -16 -65z"/>
</g>
</svg>
