<svg xmlns="http://www.w3.org/2000/svg" viewBox="0 0 179.46 167.16"><title>Asset 1</title><g id="Layer_2" data-name="Layer 2"><g id="art"><polygon points="146.01 124.54 148.26 124.54 148.26 49.65 146.01 48.85 146.01 124.54"/><polygon points="139.37 124.55 141.62 124.55 141.62 47.29 139.37 46.49 139.37 124.55"/><polygon points="139.15 35.98 141.23 36.81 141.23 31.49 139.15 30.6 139.15 35.98"/><polygon points="134.97 34.3 137.23 35.2 137.23 29.77 134.97 28.82 134.97 34.3"/><polygon points="159.93 78.12 157.45 77.6 157.45 124.55 159.93 124.55 159.93 78.12"/><polygon points="166.85 79.59 164.53 79.1 164.53 124.55 166.85 124.55 166.85 79.59"/><polygon points="173.35 80.97 171.17 80.51 171.17 124.55 173.35 124.55 173.35 80.97"/><polygon points="179.46 82.27 177.41 81.83 177.41 124.55 179.46 124.55 179.46 82.27"/><path d="M152.65,68.6V49.12l-1.6-.56L150,43.25l-3.1-1.18v-3L143,37.57V30L132.32,25.3s0,10.53,0,10.49h0v0L135,34.3v90.31h-2.25V42.17l-1-5.36-5.83-2.26v89.94l-8.37.05V43.39l.92-5.53,1.24-.75-4.41-1.61v89h-4.39V48.23l-2.26,1.31v75h-4.39V52.09L102,53.39v71.15H94.34V88.28L92.09,89v35.55H87.7V90.37l-2.26.71v33.46h-4.8V86.59L97,80.45V54l1.22-.81.92-4.63L101.59,47V44.48l4-2.58V33.18l17.54-19.46V11.19l.76-.56.21-3.35.71-1.21V.59a.59.59,0,1,1,1.17,0V6.08l.71,1.21.16,3.32.82.56v2.52L144.2,29.25v7.53L148,38.33v2.93l3,1.13s.95,4.71,1.07,5.28l1.77.61V67.7l25.63,7v1.21ZM110.72,33.12l-2.25,1.57v5.24l2.25-1.41Zm4.6-3.19-2.25,1.56V37l2.25-1.47Z"/><path d="M14.49,123.26A9.78,9.78,0,0,1,9,124.76c-5.51,0-8.82-3.65-8.82-9.38,0-5.9,4.16-9.25,9.45-9.25a13.19,13.19,0,0,1,5.38,1.2,11.11,11.11,0,0,0-.52,2l-.18,0a6.61,6.61,0,0,0-4.78-2.26c-4.61,0-6.89,3.91-6.89,8.36,0,5,2.75,8.25,6.71,8.25a8.53,8.53,0,0,0,5.31-2.12Z"/><path d="M20.65,107.44a1.33,1.33,0,0,0-1.28-1.34,1.34,1.34,0,0,0,0,2.67A1.33,1.33,0,0,0,20.65,107.44Zm-.27,4.48c-.38,0-.68.08-1,.08s-.67-.06-1-.08v12.52c.33,0,.65-.08,1-.08s.63,0,1,.08Z"/><path d="M26.67,108.51v3.41h2.65a2.35,2.35,0,0,0,0,1H26.67v6.58c0,1.6-.23,4.24,1.85,4.24a5.54,5.54,0,0,0,1.13-.18v.63a5.94,5.94,0,0,1-2.11.47c-1.9,0-3-.92-2.88-4.11v-7.63H23.11a2.36,2.36,0,0,0,0-1h1.55v-2.6Z"/><path d="M30.48,111.92c.37,0,.77.08,1.2.08s.72-.06,1.18-.08a84.48,84.48,0,0,0,3.73,9.72c1.1-2.36,2.78-6.87,3.76-9.72.27,0,.52.08.82.08s.5-.06.8-.08c-2.95,6.86-5.66,12.86-8.09,19.23-.32,0-.57-.08-.85-.08a7.44,7.44,0,0,0-.85.08c1.55-3.17,2.7-5.53,3.36-6.81Z"/><path d="M55.38,111.76c3.44,0,5.82,2.49,5.82,6.39,0,3.33-2.13,6.5-6.27,6.5A5.87,5.87,0,0,1,49,118.07,6.11,6.11,0,0,1,55.38,111.76Zm-4.16,6.71c0,2.59,1.06,5.37,3.91,5.37S59,120.07,59,118c0-2.36-.85-5.45-3.63-5.45C52.18,112.57,51.22,115.69,51.22,118.47Z"/><path d="M64.28,112.91H62.55a2.07,2.07,0,0,0,0-1h1.73l0-.21c.38-2.94,1.68-7.36,5.29-6.94a10.12,10.12,0,0,0-.13,2.09l-.12.11-.51-.27a2.52,2.52,0,0,0-.87-.13c-2.51,0-2.31,3-1.76,5.35h2.56a2.07,2.07,0,0,0,0,1H66.28v11.53c-.37,0-.67-.08-1-.08s-.68,0-1,.08Z"/><path d="M17.64,153.37a12,12,0,0,1-6.8,1.83C4.06,155.2,0,150.73,0,143.68c0-7.25,5.11-11.37,11.61-11.37a16.41,16.41,0,0,1,6.62,1.48,13.74,13.74,0,0,0-.65,2.48l-.22,0a8.11,8.11,0,0,0-5.88-2.77c-5.66,0-8.46,4.79-8.46,10.27C3,150,6.4,154,11.27,154a10.56,10.56,0,0,0,6.53-2.61Z"/><path d="M37.81,132.8c.43,0,.89.09,1.35.09s.86-.06,1.36-.09v22c-.5,0-.93-.09-1.36-.09s-.92.06-1.35.09V143.74c-2.19-.06-4.31-.16-6.47-.16s-4.28.1-6.49.16v11.07c-.5,0-.93-.09-1.36-.09s-.92.06-1.35.09v-22c.43,0,.89.09,1.35.09s.86-.06,1.36-.09V142c2.21.06,4.37.16,6.49.16s4.28-.1,6.47-.16Z"/><path d="M63.07,154.81c-.59,0-1.08-.09-1.6-.09s-1.11.06-1.64.09c-.89-2.67-2-5.76-3.23-8.69H48.78c-1.08,2.84-2.18,5.67-3.05,8.69-.43,0-.77-.09-1.13-.09s-.74.06-1.08.09l9.6-22.5h.71ZM52.72,136.53l-3.35,8.24h6.77Z"/><path d="M88.37,132.8c.8,7.95,1.66,15.87,2.49,22-.55,0-1-.09-1.45-.09s-1,.06-1.44.09c-.53-6.47-1.14-13.42-1.57-16.61-3.58,6.67-6.22,11.82-8.07,16.26H78l-1.69-3.64c-2-4.25-4.13-8.43-6.22-12.62-.68,6.28-1.51,12.65-1.51,16.61-.4,0-.74-.09-1.08-.09s-.74.06-1.11.09c.8-5.18,2.65-18.63,3-22h.8c2.46,5.11,5.42,11.17,8.71,16.86,2.93-5.5,5.76-11.1,8.87-16.86Z"/><path d="M97.54,154.81c-.49,0-.92-.09-1.36-.09s-.92.06-1.35.09v-22h5.51c6,0,8,1.38,8,5.28s-2.25,5.66-6.59,6.56a20.43,20.43,0,0,1-4.16.07Zm0-11.36a15.47,15.47,0,0,0,3,0,5,5,0,0,0,4.86-5.21c0-2.19-1-3.93-3.48-4.16a36.76,36.76,0,0,0-4.43,0Z"/><path d="M125.52,154.81c-.59,0-1.08-.09-1.6-.09s-1.11.06-1.63.09c-.9-2.67-2-5.76-3.24-8.69h-7.82c-1.07,2.84-2.18,5.67-3,8.69-.44,0-.77-.09-1.14-.09s-.74.06-1.08.09l9.6-22.5h.71Zm-10.35-18.28-3.35,8.24h6.77Z"/><path d="M128.93,132.8c.44,0,.9.09,1.36.09s.86-.06,1.36-.09v22c-.5,0-.93-.09-1.36-.09s-.92.06-1.36.09Z"/><path d="M155.35,136.66a9,9,0,0,0-6.93-3.12c-5.23,0-8.86,3.6-8.86,10.1S142.7,154,148.76,154a10.1,10.1,0,0,0,4.81-1.1v-8.27c.43,0,.89.1,1.35.1s.86-.07,1.35-.1v9.11a24.51,24.51,0,0,1-8.37,1.48c-7.79,0-11.36-4.86-11.36-11.39,0-7.54,5.17-11.5,12-11.5,4.58,0,7.17,1.42,7.85,1.87-.28.81-.49,1.64-.71,2.48Z"/><path d="M179.46,154.81h-.92c-.34-.45-1-1.22-1.61-2l-13.3-15.39h-.3v17.35c-.31,0-.59-.09-.87-.09a7.81,7.81,0,0,0-.86.09v-22h1.2l14.63,16.57h.3V132.8a7.75,7.75,0,0,0,.87.09c.27,0,.55-.06.86-.09Z"/><rect x="1.03" y="165.15" width="178.43" height="2.01"/></g></g></svg>