<svg id="Layer_1" data-name="Layer 1" xmlns="http://www.w3.org/2000/svg" xmlns:xlink="http://www.w3.org/1999/xlink" viewBox="0 0 489.82 98.22"><defs><style>.cls-1{fill:#43322e;}.cls-2{fill:url(#linear-gradient);}.cls-3{isolation:isolate;fill:url(#linear-gradient-2);}.cls-4{fill:#008a5e;}.cls-5{fill:none;stroke:#fff;stroke-width:1.29px;}</style><linearGradient id="linear-gradient" x1="70.77" y1="94.44" x2="70.77" y2="8" gradientUnits="userSpaceOnUse"><stop offset="0" stop-color="#ffdcb3"/><stop offset="1" stop-color="#e48225"/></linearGradient><linearGradient id="linear-gradient-2" x1="31.35" y1="0" x2="31.35" y2="83.7" xlink:href="#linear-gradient"/></defs><title>lrc_banner_logo</title><path class="cls-1" d="M147.43,29.65v7.2H126.87V7.52h9V29.65Z"/><path class="cls-1" d="M172.77,36.85h-8.16a14.54,14.54,0,0,1-.3-3.05,7.87,7.87,0,0,1-7,3.5q-3.87,0-5.79-2a6.33,6.33,0,0,1-1.92-4.53,6.5,6.5,0,0,1,3.15-5.6q3.14-2.13,11.16-2.57v-.49a2.23,2.23,0,0,0-.66-1.91,3.24,3.24,0,0,0-1.92-.47c-2,0-3.08.79-3.31,2.38l-7.82-.73q1.68-6.85,11.41-6.85a21,21,0,0,1,4.85.52,8.09,8.09,0,0,1,3.51,1.65,5.72,5.72,0,0,1,1.73,2.36,17.1,17.1,0,0,1,.44,4.79v8.72A12.18,12.18,0,0,0,172.77,36.85Zm-8.89-10.23c-3.66.39-5.48,1.56-5.48,3.5,0,1.32.72,2,2.17,2a3.46,3.46,0,0,0,2.34-.82c.64-.54,1-1.74,1-3.61Z"/><path class="cls-1" d="M198.37,36.85H189.8V23.1a3,3,0,0,0-.53-2.17,1.88,1.88,0,0,0-1.32-.48q-2.34,0-2.34,3.27V36.85H177V15h8v3.09q1.75-3.54,6.29-3.54a8.2,8.2,0,0,1,4,.91,5.45,5.45,0,0,1,2.35,2.36,12.64,12.64,0,0,1,.71,5Z"/><path class="cls-1" d="M224.7,36.85h-8V34a6.17,6.17,0,0,1-5.89,3.35,7.46,7.46,0,0,1-6.13-3c-1.57-2-2.36-4.83-2.36-8.58a13.43,13.43,0,0,1,2.37-8.36,7.48,7.48,0,0,1,6.25-3.09,6.73,6.73,0,0,1,5.35,2.47V7.52h8.44Zm-8.44-14c0-2-.81-2.95-2.43-2.95a2.2,2.2,0,0,0-2.22,1.87,17.15,17.15,0,0,0-.53,4.58q0,5.31,2.71,5.31a2.23,2.23,0,0,0,1.75-.84,3.85,3.85,0,0,0,.72-2.56Z"/><path class="cls-1" d="M227.76,30.66l6.77-.92q.58,2.36,4.6,2.36,3.33,0,3.33-1.29a1,1,0,0,0-.65-.87,12.55,12.55,0,0,0-3.05-.63q-6.66-.93-8.31-2.89A6.65,6.65,0,0,1,228.79,22a6.43,6.43,0,0,1,2.8-5.42,12,12,0,0,1,7.32-2.07q8,0,10.14,5.73l-6.48,1.23c-.61-1.29-1.87-1.94-3.81-1.94a4.37,4.37,0,0,0-2,.38c-.45.25-.68.5-.68.74,0,.72.69,1.15,2.07,1.31a41.88,41.88,0,0,1,7.28,1.22,6.86,6.86,0,0,1,3.26,2.28,6.05,6.05,0,0,1,1.36,4,6.61,6.61,0,0,1-3,5.7q-3,2.12-8.26,2.11Q229.88,37.3,227.76,30.66Z"/><path class="cls-1" d="M266.66,28l7.31.62a9.83,9.83,0,0,1-3.22,6.23,10.31,10.31,0,0,1-7.16,2.41,10.76,10.76,0,0,1-11.26-11.22,11.51,11.51,0,0,1,3.1-8.28,10.65,10.65,0,0,1,8.07-3.25A10.41,10.41,0,0,1,270.68,17a9.36,9.36,0,0,1,3.18,6.22l-7.5.62q-.48-3.47-2.62-3.46a2.1,2.1,0,0,0-2,1.26A10.65,10.65,0,0,0,261.1,26a9.48,9.48,0,0,0,.63,4,2.25,2.25,0,0,0,2.2,1.29Q266.22,31.28,266.66,28Z"/><path class="cls-1" d="M299,36.85h-8.17a14.54,14.54,0,0,1-.3-3.05,7.87,7.87,0,0,1-7,3.5q-3.87,0-5.79-2a6.3,6.3,0,0,1-1.93-4.53,6.5,6.5,0,0,1,3.15-5.6q3.15-2.13,11.16-2.57v-.49a2.25,2.25,0,0,0-.65-1.91,3.26,3.26,0,0,0-1.93-.47c-2,0-3.08.79-3.31,2.38l-7.82-.73q1.68-6.85,11.41-6.85a21.12,21.12,0,0,1,4.86.52,8.1,8.1,0,0,1,3.5,1.65,5.64,5.64,0,0,1,1.73,2.36,17.1,17.1,0,0,1,.44,4.79v8.72A11.94,11.94,0,0,0,299,36.85Zm-8.9-10.23q-5.48.59-5.48,3.5c0,1.32.73,2,2.17,2a3.46,3.46,0,0,0,2.34-.82c.65-.54,1-1.74,1-3.61Z"/><path class="cls-1" d="M311.84,43.74h-8.57V15h7.89v3.09q1.65-3.54,6.16-3.54a7.13,7.13,0,0,1,6.12,3q2.22,3,2.22,8.28a13.81,13.81,0,0,1-2.27,8.33,7,7,0,0,1-6,3.1,6.33,6.33,0,0,1-5.57-2.79Zm0-14.88a3.42,3.42,0,0,0,.67,2.26,2,2,0,0,0,1.65.81,2.13,2.13,0,0,0,2.13-1.43,12.33,12.33,0,0,0,.58-4.39,12.09,12.09,0,0,0-.67-4.81,2.13,2.13,0,0,0-2-1.38,2.56,2.56,0,0,0-1.58.62,2.45,2.45,0,0,0-.79,2Z"/><path class="cls-1" d="M344,29l8,.53A9.46,9.46,0,0,1,348.37,35a12.51,12.51,0,0,1-7.88,2.27,12.11,12.11,0,0,1-8.81-3.19,10.6,10.6,0,0,1-3.28-7.92,11.81,11.81,0,1,1,23.61.19c0,.31,0,.72,0,1.25H337.36a5.63,5.63,0,0,0,.73,3.06A3.55,3.55,0,0,0,344,29Zm-.58-5.68a4,4,0,0,0-.89-3,3.14,3.14,0,0,0-2.15-.76q-3,0-3,3.73Z"/><path class="cls-1" d="M153,72.85H143l-4.28-11.22h-2.84V72.85h-9V43.52h15.32q5.07,0,7.87,2.38a7.8,7.8,0,0,1,2.81,6.26,9.4,9.4,0,0,1-1,4.48,8.61,8.61,0,0,1-4.16,3.42Zm-17.1-17.49h3.85a4.77,4.77,0,0,0,2.73-.71,2.38,2.38,0,0,0,1-2.08c0-1.88-1.16-2.82-3.46-2.82h-4.15Z"/><path class="cls-1" d="M172.33,65l8,.53A9.41,9.41,0,0,1,176.7,71a12.48,12.48,0,0,1-7.87,2.27A12.1,12.1,0,0,1,160,70.11a10.61,10.61,0,0,1-3.29-7.92,11.82,11.82,0,1,1,23.62.19c0,.31,0,.72,0,1.25H165.69a5.72,5.72,0,0,0,.73,3.06A3.55,3.55,0,0,0,172.33,65Zm-.58-5.68a3.93,3.93,0,0,0-.89-3,3.12,3.12,0,0,0-2.15-.76q-3,0-3,3.73Z"/><path class="cls-1" d="M197.84,64l7.3.62a9.77,9.77,0,0,1-3.21,6.23,10.35,10.35,0,0,1-7.17,2.41,10.74,10.74,0,0,1-11.25-11.22,11.51,11.51,0,0,1,3.1-8.28,10.65,10.65,0,0,1,8.07-3.25A10.39,10.39,0,0,1,201.85,53,9.36,9.36,0,0,1,205,59.23l-7.5.62q-.47-3.47-2.62-3.46a2.12,2.12,0,0,0-2,1.26,10.65,10.65,0,0,0-.63,4.37,9.44,9.44,0,0,0,.63,4,2.26,2.26,0,0,0,2.21,1.29Q197.4,67.28,197.84,64Z"/><path class="cls-1" d="M229.05,51l-8.57,23.67a9.49,9.49,0,0,1-2.84,4.2q-1.84,1.51-5.69,1.52c-.61,0-2-.07-4.3-.19V74.12a20.69,20.69,0,0,0,3.1.25c2.46,0,3.69-.54,3.69-1.63a4.49,4.49,0,0,0-.36-1.48L206.24,51h9.17L219,62.66,222.79,51Z"/><path class="cls-1" d="M245.32,64l7.3.62a9.77,9.77,0,0,1-3.21,6.23,10.34,10.34,0,0,1-7.16,2.41A10.74,10.74,0,0,1,231,62.08a11.51,11.51,0,0,1,3.1-8.28,10.65,10.65,0,0,1,8.07-3.25A10.41,10.41,0,0,1,249.34,53a9.39,9.39,0,0,1,3.17,6.22l-7.49.62q-.48-3.47-2.62-3.46a2.1,2.1,0,0,0-2,1.26,10.45,10.45,0,0,0-.64,4.37,9.26,9.26,0,0,0,.64,4,2.24,2.24,0,0,0,2.2,1.29Q244.89,67.28,245.32,64Z"/><path class="cls-1" d="M264.57,43.52V72.85h-8.44V43.52Z"/><path class="cls-1" d="M278.62,42.6v6.79h-8.57V42.6Zm0,8.4V72.85h-8.57V51Z"/><path class="cls-1" d="M305.43,72.85h-8.57V59.1a3.05,3.05,0,0,0-.52-2.17,1.92,1.92,0,0,0-1.33-.48q-2.34,0-2.34,3.27V72.85H284.1V51h7.95v3.09q1.76-3.54,6.29-3.54a8.17,8.17,0,0,1,4,.91,5.53,5.53,0,0,1,2.36,2.36,12.68,12.68,0,0,1,.7,5Z"/><path class="cls-1" d="M333.69,46l-.22,5.87-.41,0c-.77,0-1.32-.07-1.65-.07-1.33,0-2.13.27-2.41.8a6.11,6.11,0,0,1,2.45,4.88,5.56,5.56,0,0,1-2.65,5,13.29,13.29,0,0,1-7.21,1.69l-1.12,0-1,0c-1.39,0-2.09.35-2.09,1.07s.62,1,1.85,1l7,.3q3.84.17,5.64,2.15a6.69,6.69,0,0,1,1.79,4.62A6.09,6.09,0,0,1,331,78.4q-2.67,2-10.4,2-11.92,0-11.93-5.48,0-3,3.16-4.17a4.14,4.14,0,0,1-2-3.41q0-3.22,4.19-4.86a5.21,5.21,0,0,1-3.5-5.07,5.67,5.67,0,0,1,2.83-5,14.43,14.43,0,0,1,7.78-1.8,17.34,17.34,0,0,1,4.1.45c.5-3.42,2.32-5.14,5.44-5.14C331.37,45.86,332.38,45.92,333.69,46ZM319,72.56l-.95,0c-1.47,0-2.21.46-2.21,1.38s.56,1.39,1.69,1.63a21.55,21.55,0,0,0,4.5.37,8.15,8.15,0,0,0,3.43-.45,1.41,1.41,0,0,0,.76-1.25,1.33,1.33,0,0,0-.35-.93,2.51,2.51,0,0,0-1.63-.44Zm2.19-12.41q2.49,0,2.49-2.64c0-1.81-.85-2.71-2.55-2.71s-2.54.92-2.54,2.75A2.3,2.3,0,0,0,321.14,60.15Z"/><path class="cls-1" d="M365.34,61.65l8.22.5a12,12,0,0,1-4,8.27,13.69,13.69,0,0,1-18-1.07q-3.66-4-3.67-10.92t3.48-11.13q3.48-4.23,9.71-4.23,5.82,0,8.95,3.22a13.31,13.31,0,0,1,3.53,8.55l-8.4.45A6.48,6.48,0,0,0,364,51a3.44,3.44,0,0,0-2.66-1.31q-4.25,0-4.25,8.55,0,4.8,1.11,6.51a3.47,3.47,0,0,0,3.1,1.72Q364.91,66.51,365.34,61.65Z"/><path class="cls-1" d="M392,65l8,.53A9.41,9.41,0,0,1,396.33,71a12.5,12.5,0,0,1-7.87,2.27,12.08,12.08,0,0,1-8.81-3.19,10.61,10.61,0,0,1-3.29-7.92,11.81,11.81,0,1,1,23.61.19c0,.31,0,.72,0,1.25H385.32a5.63,5.63,0,0,0,.73,3.06A3.55,3.55,0,0,0,392,65Zm-.58-5.68a4,4,0,0,0-.89-3,3.14,3.14,0,0,0-2.15-.76q-3,0-3,3.73Z"/><path class="cls-1" d="M425.62,72.85h-8.57V59.1a3.05,3.05,0,0,0-.52-2.17,1.92,1.92,0,0,0-1.33-.48q-2.34,0-2.34,3.27V72.85h-8.57V51h7.95v3.09q1.75-3.54,6.29-3.54a8.17,8.17,0,0,1,4,.91,5.53,5.53,0,0,1,2.36,2.36,12.68,12.68,0,0,1,.7,5Z"/><path class="cls-1" d="M444.6,51v5.56h-4.37v8.06c0,1.1.21,1.76.63,2a2.92,2.92,0,0,0,1.29.31,10.34,10.34,0,0,0,2.45-.37v6.1a26.06,26.06,0,0,1-5,.5q-3.94,0-5.81-1.7c-1.24-1.13-1.86-2.94-1.86-5.41l0-2.56v-6.9H428.7V51H432l.13-7.11,8.14-.13V51Z"/><path class="cls-1" d="M462.86,65l8,.53A9.41,9.41,0,0,1,467.23,71a12.48,12.48,0,0,1-7.87,2.27,12.1,12.1,0,0,1-8.81-3.19,10.61,10.61,0,0,1-3.29-7.92,12.18,12.18,0,0,1,20.38-8.46,11.59,11.59,0,0,1,3.23,8.65c0,.31,0,.72,0,1.25H456.22a5.63,5.63,0,0,0,.73,3.06A3.55,3.55,0,0,0,462.86,65Zm-.58-5.68a4,4,0,0,0-.89-3,3.14,3.14,0,0,0-2.15-.76q-3,0-3,3.73Z"/><path class="cls-1" d="M483.4,72.85h-8.21V51h7.13v4.51q1.23-4.92,5.7-4.92a11.7,11.7,0,0,1,1.24.09V58.3a7.12,7.12,0,0,0-1.61-.21q-4.25,0-4.25,4.75Z"/><path class="cls-1" d="M132.8,94c0,.13.07.22.09.31s-.07.1-.25.1h-1.12c-.22,0-.29-.07-.32-.19l-1-3.48H126.5l-.92,3.48c0,.12-.11.19-.33.19h-1.11c-.18,0-.25,0-.25-.1A.94.94,0,0,1,124,94l3.6-11.72c0-.18.07-.2.27-.2h1.06c.14,0,.2,0,.27.2Zm-4-8.5c-.14-.56-.32-1.2-.41-1.71h0c-.07.43-.25,1.23-.37,1.71l-1.1,4h3Z"/><path class="cls-1" d="M146.57,94.22c0,.14-.07.21-.22.21h-.94a.19.19,0,0,1-.21-.21v-6c0-.78-.2-1.46-1.17-1.46a3.51,3.51,0,0,0-2.38,1.1v6.37a.19.19,0,0,1-.21.21h-.94a.19.19,0,0,1-.22-.21V88a4,4,0,0,0-.07-1.07,5.5,5.5,0,0,0-.29-.75s0-.07.09-.13l.81-.45s.09-.07.15-.07c.32,0,.54,1.08.56,1.22a4.6,4.6,0,0,1,2.89-1.22c2,0,2.15,1.4,2.15,2.7Z"/><path class="cls-1" d="M152.45,94.69c-2.43,0-3.47-2-3.47-4.54s1-4.61,3.65-4.61,3.51,2,3.51,4.52S155.08,94.69,152.45,94.69ZM154.67,90c0-1.76-.49-3.38-2.11-3.38s-2.11,1.55-2.11,3.33c0,2.05.47,3.58,2.13,3.58S154.67,92.11,154.67,90Z"/><path class="cls-1" d="M163.34,93.77a.65.65,0,0,1,0,.18c0,.23-1.35.74-2.32.74a2.26,2.26,0,0,1-1.7-.63,2.88,2.88,0,0,1-.52-2V86.91h-1.35c-.12,0-.12-.13-.12-.22V86c0-.13,0-.22.12-.22h1.35V83.33c0-.11.07-.18.2-.22l1-.27.13,0c.09,0,.09.09.09.2v2.77h2.66c.11,0,.2,0,.2.13s0,.07,0,.12l-.23.71a.26.26,0,0,1-.23.16h-2.38V92c0,.72,0,1.46,1.08,1.46A5.33,5.33,0,0,0,163,93a.12.12,0,0,1,.12.11Z"/><path class="cls-1" d="M168.81,90.33c0,.14-.05.18-.25.18h-4c-.18,0-.26-.05-.26-.23v-.83c0-.2,0-.29.24-.29h4c.18,0,.25.07.25.25Z"/><path class="cls-1" d="M172.94,94.22a.19.19,0,0,1-.22.21h-.94a.19.19,0,0,1-.21-.21V86.91h-1.26c-.13,0-.13-.13-.13-.22V86c0-.13,0-.22.13-.22h1.26v-1.4c0-1.35.27-3,2.5-3,.83,0,2,.36,2,.63a1.61,1.61,0,0,1-.09.25l-.25.6c0,.05-.07.1-.13.1a7.93,7.93,0,0,0-1.56-.37c-1,0-1.08.75-1.08,1.8v1.38h2.59c.11,0,.2,0,.2.13s0,.07,0,.12l-.24.71a.24.24,0,0,1-.23.16h-2.3Z"/><path class="cls-1" d="M179.79,94.69c-2.43,0-3.47-2-3.47-4.54s1-4.61,3.65-4.61,3.51,2,3.51,4.52S182.42,94.69,179.79,94.69ZM182,90c0-1.76-.49-3.38-2.11-3.38s-2.11,1.55-2.11,3.33c0,2.05.47,3.58,2.13,3.58S182,92.11,182,90Z"/><path class="cls-1" d="M187.3,94.22c0,.14-.07.21-.22.21h-.93c-.15,0-.22-.07-.22-.21V88a2.94,2.94,0,0,0-.31-1.37,1.28,1.28,0,0,1-.19-.45.26.26,0,0,1,.12-.18l.67-.41a.42.42,0,0,1,.18-.09c.32,0,.63,1.12.7,1.51.47-.5,1.12-1.51,2.16-1.51.42,0,.88.14.88.31a.6.6,0,0,1,0,.14l-.4.92s0,.12-.1.12a1.84,1.84,0,0,0-.6-.16c-.63,0-1.26.94-1.69,1.41Z"/><path class="cls-1" d="M195.49,90.33c0,.14-.05.18-.25.18h-4c-.18,0-.25-.05-.25-.23v-.83c0-.2,0-.29.23-.29h4c.18,0,.25.07.25.25Z"/><path class="cls-1" d="M198,88.64a4.93,4.93,0,0,0-.22-1.8c-.07-.22-.32-.56-.32-.67s.09-.11.16-.14l.7-.44a.47.47,0,0,1,.14,0c.26,0,.58.77.65,1.06a4.39,4.39,0,0,1,2.65-1.06c1.93,0,2.81,2.16,2.81,4.39,0,2.6-.92,4.76-3,4.76a3.74,3.74,0,0,1-2.2-.62v3.68c0,.12,0,.2-.12.21l-.9.22a1,1,0,0,1-.22,0c-.12,0-.12-.15-.12-.24Zm1.36,4.25a4,4,0,0,0,2,.59c1.55,0,1.69-1.76,1.69-3.51,0-1.51-.12-3.22-1.58-3.22a3.53,3.53,0,0,0-2.15.88Z"/><path class="cls-1" d="M208.3,94.22a.19.19,0,0,1-.21.21h-.94a.19.19,0,0,1-.21-.21V88a3.07,3.07,0,0,0-.31-1.37,1.41,1.41,0,0,1-.2-.45.26.26,0,0,1,.13-.18l.66-.41a.57.57,0,0,1,.18-.09c.33,0,.63,1.12.71,1.51.46-.5,1.11-1.51,2.16-1.51.41,0,.88.14.88.31s0,.09-.05.14l-.4.92s0,.12-.11.12a1.75,1.75,0,0,0-.59-.16c-.63,0-1.26.94-1.7,1.41Z"/><path class="cls-1" d="M215.47,94.69c-2.43,0-3.48-2-3.48-4.54s1-4.61,3.66-4.61,3.51,2,3.51,4.52S218.1,94.69,215.47,94.69ZM217.68,90c0-1.76-.48-3.38-2.1-3.38s-2.11,1.55-2.11,3.33c0,2.05.47,3.58,2.12,3.58S217.68,92.11,217.68,90Z"/><path class="cls-1" d="M228.09,94.22c0,.14-.07.21-.22.21h-.93c-.15,0-.22-.07-.22-.21V86.91h-3.49v7.31a.19.19,0,0,1-.22.21h-.94a.19.19,0,0,1-.21-.21V86.91H220.6c-.13,0-.13-.13-.13-.22V86c0-.13,0-.22.13-.22h1.26v-1.4c0-1.35.25-3,2.32-3,.36,0,1.53.25,1.53.45a2.1,2.1,0,0,1-.09.25l-.25.6s-.07.1-.13.1a8.66,8.66,0,0,0-1.11-.19c-.85,0-.9.75-.9,1.8v1.38h4.62c.2,0,.24.11.24.27Zm-.79-10.5a1.1,1.1,0,0,1,0-2.2,1.1,1.1,0,0,1,0,2.2Z"/><path class="cls-1" d="M236,93.77a1.35,1.35,0,0,1,0,.18c0,.23-1.35.74-2.32.74a2.23,2.23,0,0,1-1.69-.63,2.84,2.84,0,0,1-.53-2V86.91h-1.35c-.12,0-.12-.13-.12-.22V86c0-.13,0-.22.12-.22h1.35V83.33c0-.11.08-.18.2-.22l1-.27.12,0c.09,0,.09.09.09.2v2.77h2.67c.11,0,.2,0,.2.13s0,.07,0,.12l-.24.71a.24.24,0,0,1-.23.16h-2.38V92c0,.72,0,1.46,1.08,1.46A5.33,5.33,0,0,0,235.7,93a.13.13,0,0,1,.13.11Z"/><path class="cls-1" d="M244.61,94.22c0,.14-.07.21-.22.21h-.93c-.15,0-.22-.07-.22-.21V86.91H242c-.12,0-.12-.13-.12-.22V86c0-.13,0-.22.12-.22h1.26v-1.4c0-1.35.27-3,2.5-3,.83,0,2,.36,2,.63a1.61,1.61,0,0,1-.09.25l-.25.6c0,.05-.07.1-.12.1a8.07,8.07,0,0,0-1.57-.37c-1,0-1.08.75-1.08,1.8v1.38h2.59c.11,0,.2,0,.2.13s0,.07,0,.12l-.23.71a.27.27,0,0,1-.24.16h-2.3Z"/><path class="cls-1" d="M254,91.59a4.47,4.47,0,0,0,.21,1.8c.08.22.33.56.33.67s-.09.1-.16.14l-.71.43c-.07,0-.1.06-.14.06-.27,0-.59-1-.68-1.21a3.66,3.66,0,0,1-2.6,1.21,2.26,2.26,0,0,1-2.34-2.54c0-3.05,3.6-3.1,4.72-3.14v-.64c0-1.05-.32-1.62-1.6-1.62a5.86,5.86,0,0,0-2.2.57.14.14,0,0,1-.13-.09l-.23-.63a.64.64,0,0,1-.05-.23c0-.31,1.65-.83,2.81-.83,2.07,0,2.77,1,2.77,2.52Zm-1.37-1.46c-.79,0-3.37,0-3.37,1.91a1.38,1.38,0,0,0,1.32,1.53,3.44,3.44,0,0,0,2.05-1.12Z"/><path class="cls-1" d="M262.57,93.61s.06.09.06.14a4.61,4.61,0,0,1-2.85.94c-2.14,0-3.38-1.68-3.38-4.31,0-3,1.44-4.84,3.65-4.84a3.57,3.57,0,0,1,2.6,1.12s0,.09-.06.14l-.41.76s-.06.11-.11.11a3.24,3.24,0,0,0-1.91-.92c-1.76,0-2.28,1.31-2.28,3.36,0,1.64.32,3.37,2.07,3.37a4.89,4.89,0,0,0,2.21-.74s.07.06.11.11Z"/><path class="cls-1" d="M266.5,94.22c0,.14-.07.21-.22.21h-.94a.19.19,0,0,1-.21-.21V86.91h-1.41c-.14,0-.21-.07-.21-.22V86c0-.15.07-.22.21-.22h2.54c.2,0,.24.11.24.27Zm-.78-10.5a1.1,1.1,0,0,1,0-2.2,1.1,1.1,0,1,1,0,2.2Z"/><path class="cls-1" d="M272.87,94.11a.33.33,0,0,1,0,.13c0,.19-.87.45-1.53.45a1.72,1.72,0,0,1-1.7-.87,9.12,9.12,0,0,1-.25-2.61V81.87c0-.13.05-.2.13-.22l.9-.22.21,0c.13,0,.13.14.13.23v9.62c0,.56,0,1.47.05,1.69a.73.73,0,0,0,.72.63,3.63,3.63,0,0,0,.94-.23c.11,0,.11,0,.13.1Z"/><path class="cls-1" d="M276.16,94.22a.19.19,0,0,1-.21.21H275a.19.19,0,0,1-.22-.21V86.91h-1.4a.2.2,0,0,1-.22-.22V86a.2.2,0,0,1,.22-.22h2.54c.2,0,.23.11.23.27Zm-.77-10.5a1.1,1.1,0,1,1,0-2.2,1.1,1.1,0,1,1,0,2.2Z"/><path class="cls-1" d="M284,93.77a.65.65,0,0,1,0,.18c0,.23-1.35.74-2.33.74a2.25,2.25,0,0,1-1.69-.63,2.88,2.88,0,0,1-.52-2V86.91h-1.35c-.13,0-.13-.13-.13-.22V86c0-.13,0-.22.13-.22h1.35V83.33c0-.11.07-.18.2-.22l.95-.27.13,0c.09,0,.09.09.09.2v2.77h2.66c.11,0,.2,0,.2.13s0,.07,0,.12l-.23.71a.27.27,0,0,1-.24.16H280.9V92c0,.72,0,1.46,1.08,1.46a5.52,5.52,0,0,0,1.73-.49.12.12,0,0,1,.12.11Z"/><path class="cls-1" d="M289.72,93.32a25.23,25.23,0,0,1-1.25,3.58,2.31,2.31,0,0,1-2.12,1.32c-1,0-2.27-.63-2.27-.9a.21.21,0,0,1,0-.11l.36-.72a.13.13,0,0,1,.12-.09c.2,0,.85.7,1.73.7.67,0,1.08-.67,1.37-1.53l.38-1.14h-.65c-.16,0-.2,0-.23-.16l-2.79-7.83a.51.51,0,0,1,0-.25c0-.09.07-.11.14-.15l.76-.3a.68.68,0,0,1,.25-.07c.13,0,.16,0,.2.14L288,92.62a12.1,12.1,0,0,1,.36,1.29h0c.07-.43.16-.83.26-1.26l1.81-6.84a.17.17,0,0,1,.19-.14.72.72,0,0,1,.26.07l.75.3c.07,0,.15.06.15.15a.93.93,0,0,1,0,.25Z"/><path class="cls-1" d="M303,87c-.07.14-.11.22-.22.22a5.05,5.05,0,0,0-1.82-.49,1.17,1.17,0,0,0-1.33,1.19c0,2,4,1.42,4,4.23a2.59,2.59,0,0,1-2.88,2.56c-.87,0-2.74-.51-2.74-.87a.48.48,0,0,1,.07-.21l.26-.56c.05-.13.1-.16.16-.16a6.29,6.29,0,0,0,2.32.63,1.3,1.3,0,0,0,1.44-1.3c0-1.87-4-1.46-4-4.18a2.52,2.52,0,0,1,2.72-2.5,5.86,5.86,0,0,1,2.13.54c.14.07.2.14.2.23s-.06.11-.08.18Z"/><path class="cls-1" d="M311.75,93.61a.39.39,0,0,1,.05.14,4.6,4.6,0,0,1-2.84.94c-2.4,0-3.8-1.84-3.8-4.58s1.33-4.57,3.56-4.57c3,0,3.28,2.92,3.28,4.47,0,.25,0,.39-.2.39h-5.16c0,1.1.43,3.08,2.48,3.08a5,5,0,0,0,2.22-.74c.05,0,.07.06.1.11Zm-1.22-4.32c0-.94-.31-2.63-1.88-2.63s-2,1.73-2,2.63Z"/><path class="cls-1" d="M315.64,94.22a.19.19,0,0,1-.22.21h-.94a.19.19,0,0,1-.21-.21V88a3.07,3.07,0,0,0-.31-1.37,1.41,1.41,0,0,1-.2-.45.26.26,0,0,1,.13-.18l.67-.41a.42.42,0,0,1,.18-.09c.32,0,.63,1.12.7,1.51.47-.5,1.11-1.51,2.16-1.51.41,0,.88.14.88.31a.6.6,0,0,1-.05.14l-.4.92s0,.12-.11.12a1.75,1.75,0,0,0-.59-.16c-.63,0-1.26.94-1.69,1.41Z"/><path class="cls-1" d="M323,94.4c-.05.12-.07.16-.23.16H322c-.16,0-.18-.07-.21-.16l-3-8.21s0-.07,0-.13,0-.09.16-.12l.88-.24c.05,0,.11,0,.18,0s.07.07.13.14l2,5.85c.12.38.23.79.32,1.14h0a6.47,6.47,0,0,1,.32-1.12l2.12-5.87c.06-.07.06-.14.13-.14s.13,0,.18,0l.88.24c.13,0,.16,0,.16.12s0,.09,0,.13Z"/><path class="cls-1" d="M329.82,94.22c0,.14-.07.21-.22.21h-.93c-.15,0-.22-.07-.22-.21V86.91h-1.4a.19.19,0,0,1-.22-.22V86a.19.19,0,0,1,.22-.22h2.54c.19,0,.23.11.23.27Zm-.77-10.5a1.1,1.1,0,0,1,0-2.2,1.1,1.1,0,0,1,0,2.2Z"/><path class="cls-1" d="M339.25,94.22a.19.19,0,0,1-.21.21h-.94a.19.19,0,0,1-.22-.21v-6c0-.78-.19-1.46-1.17-1.46a3.48,3.48,0,0,0-2.37,1.1v6.37c0,.14-.07.21-.22.21h-.94a.19.19,0,0,1-.21-.21V88a4,4,0,0,0-.07-1.07,7.75,7.75,0,0,0-.29-.75s0-.07.09-.13l.81-.45s.09-.07.14-.07c.33,0,.54,1.08.56,1.22a4.63,4.63,0,0,1,2.9-1.22c2,0,2.14,1.4,2.14,2.7Z"/><path class="cls-1" d="M348.18,91c0,1,.13,3.11.13,4.09a2.85,2.85,0,0,1-3.17,3.17c-1.35,0-3-.62-3-1a.46.46,0,0,1,.07-.23l.29-.61a.14.14,0,0,1,.13-.11,6.62,6.62,0,0,0,2.47.7c1.67,0,1.87-1,1.87-2s-.06-1.63-.06-1.85a3.79,3.79,0,0,1-2.44,1c-1.64,0-2.78-1.44-2.78-4,0-2.83,1.1-4.68,3.39-4.68a3.25,3.25,0,0,1,2.12.77c.16-.45.36-.77.52-.77a.35.35,0,0,1,.17,0l.81.5c.07,0,.07.07.07.11s-.16.23-.33.66a3.23,3.23,0,0,0-.23,1.34Zm-1.37-3.73a3.86,3.86,0,0,0-1.65-.48c-1.37,0-2,1.2-2,3.13s.34,3.11,1.57,3.11a3.73,3.73,0,0,0,2.1-.9Z"/><path class="cls-1" d="M362.92,93.05a.35.35,0,0,1,.11.25,3.48,3.48,0,0,1-2.88,1.39c-3.06,0-4.14-2.81-4.14-6.54,0-3.42.88-6.3,4-6.3a3.46,3.46,0,0,1,2.88,1.39.38.38,0,0,1-.1.25l-.38.48c-.06.08-.11.15-.18.15s-1.14-1.06-2.18-1.06c-1.94,0-2.43,1.85-2.43,4.91,0,3.33.72,5.51,2.56,5.51,1,0,2.05-1.06,2.17-1.06s.13.09.19.14Z"/><path class="cls-1" d="M364.92,81.87c0-.13.05-.2.13-.22l.9-.22a2.11,2.11,0,0,1,.21,0c.13,0,.13.14.13.23v5.13a4.47,4.47,0,0,1,2.82-1.22c2,0,2.15,1.4,2.15,2.7v6a.19.19,0,0,1-.22.21h-.94a.19.19,0,0,1-.21-.21v-6c0-.78-.2-1.46-1.17-1.46a3.65,3.65,0,0,0-2.43,1.1v6.37c0,.14-.07.21-.22.21h-.93c-.15,0-.22-.07-.22-.21Z"/><path class="cls-1" d="M379.66,91.59a4.42,4.42,0,0,0,.22,1.8c.07.22.32.56.32.67s-.09.1-.16.14l-.7.43a.33.33,0,0,1-.15.06c-.27,0-.59-1-.68-1.21a3.65,3.65,0,0,1-2.59,1.21,2.26,2.26,0,0,1-2.34-2.54c0-3.05,3.6-3.1,4.71-3.14v-.64c0-1.05-.32-1.62-1.6-1.62a6,6,0,0,0-2.2.57.13.13,0,0,1-.12-.09l-.23-.63a.49.49,0,0,1-.06-.23c0-.31,1.66-.83,2.81-.83,2.07,0,2.77,1,2.77,2.52Zm-1.37-1.46c-.79,0-3.36,0-3.36,1.91a1.38,1.38,0,0,0,1.31,1.53,3.38,3.38,0,0,0,2.05-1.12Z"/><path class="cls-1" d="M382.63,88a6,6,0,0,0-.11-1.26,4.23,4.23,0,0,0-.23-.61s0-.07.09-.13l.77-.43a.46.46,0,0,1,.16-.07c.28,0,.47.94.49,1.06a4.43,4.43,0,0,1,2.34-1.06c1.17,0,1.68.36,1.91,1.08a4.64,4.64,0,0,1,2.38-1.08c2,0,2.14,1.4,2.14,2.7v6c0,.14-.07.21-.22.21h-.93c-.15,0-.22-.07-.22-.21v-6c0-.78-.2-1.46-1.15-1.46a2.89,2.89,0,0,0-1.77.73v6.74a.19.19,0,0,1-.21.21h-.94a.19.19,0,0,1-.21-.21v-6c0-.78-.2-1.46-1.17-1.46a2.83,2.83,0,0,0-1.75.75v6.72c0,.14-.07.21-.22.21h-.93c-.15,0-.22-.07-.22-.21Z"/><path class="cls-1" d="M395.7,88.64a4.93,4.93,0,0,0-.22-1.8c-.07-.22-.32-.56-.32-.67s.09-.11.16-.14l.7-.44a.43.43,0,0,1,.15,0c.25,0,.57.77.65,1.06a4.36,4.36,0,0,1,2.64-1.06c1.93,0,2.81,2.16,2.81,4.39,0,2.6-.92,4.76-3,4.76a3.71,3.71,0,0,1-2.19-.62v3.68c0,.12-.06.2-.13.21l-.9.22a.93.93,0,0,1-.22,0c-.12,0-.12-.15-.12-.24Zm1.37,4.25a4,4,0,0,0,2,.59c1.55,0,1.69-1.76,1.69-3.51,0-1.51-.12-3.22-1.58-3.22a3.5,3.5,0,0,0-2.14.88Z"/><path class="cls-1" d="M410,91.59a4.42,4.42,0,0,0,.22,1.8c.07.22.32.56.32.67s-.09.1-.16.14l-.7.43a.33.33,0,0,1-.15.06c-.27,0-.59-1-.68-1.21a3.65,3.65,0,0,1-2.59,1.21,2.26,2.26,0,0,1-2.34-2.54c0-3.05,3.6-3.1,4.71-3.14v-.64c0-1.05-.32-1.62-1.6-1.62a6,6,0,0,0-2.2.57.13.13,0,0,1-.12-.09l-.23-.63a.49.49,0,0,1-.06-.23c0-.31,1.66-.83,2.81-.83,2.07,0,2.77,1,2.77,2.52Zm-1.37-1.46c-.79,0-3.36,0-3.36,1.91a1.38,1.38,0,0,0,1.31,1.53,3.38,3.38,0,0,0,2.05-1.12Z"/><path class="cls-1" d="M414.83,94.22a.19.19,0,0,1-.21.21h-.94a.19.19,0,0,1-.21-.21V86.91h-1.41a.2.2,0,0,1-.22-.22V86a.2.2,0,0,1,.22-.22h2.54c.2,0,.23.11.23.27Zm-.77-10.5a1.1,1.1,0,0,1,0-2.2,1.1,1.1,0,1,1,0,2.2Z"/><path class="cls-1" d="M423.85,91c0,1,.13,3.11.13,4.09a2.85,2.85,0,0,1-3.17,3.17c-1.35,0-3-.62-3-1a.4.4,0,0,1,.08-.23l.28-.61a.14.14,0,0,1,.13-.11,6.77,6.77,0,0,0,2.47.7c1.67,0,1.87-1,1.87-2s-.05-1.63-.05-1.85a3.84,3.84,0,0,1-2.45,1c-1.64,0-2.78-1.44-2.78-4,0-2.83,1.1-4.68,3.39-4.68a3.25,3.25,0,0,1,2.12.77c.17-.45.36-.77.53-.77a.34.34,0,0,1,.16,0l.81.5c.07,0,.07.07.07.11s-.16.23-.32.66a3.06,3.06,0,0,0-.24,1.34Zm-1.37-3.73a3.86,3.86,0,0,0-1.65-.48c-1.37,0-2,1.2-2,3.13s.34,3.11,1.57,3.11a3.73,3.73,0,0,0,2.1-.9Z"/><path class="cls-1" d="M433.27,94.22a.19.19,0,0,1-.22.21h-.94a.19.19,0,0,1-.21-.21v-6c0-.78-.2-1.46-1.17-1.46a3.51,3.51,0,0,0-2.38,1.1v6.37a.19.19,0,0,1-.21.21h-.94c-.15,0-.22-.07-.22-.21V88a4,4,0,0,0-.07-1.07,5.5,5.5,0,0,0-.29-.75s0-.07.09-.13l.81-.45s.09-.07.15-.07c.32,0,.54,1.08.55,1.22a4.66,4.66,0,0,1,2.9-1.22c2,0,2.15,1.4,2.15,2.7Z"/><path class="cls-1" d="M447.94,93.05a.38.38,0,0,1,.1.25,3.46,3.46,0,0,1-2.88,1.39c-3.06,0-4.14-2.81-4.14-6.54,0-3.42.88-6.3,4-6.3a3.48,3.48,0,0,1,2.88,1.39.4.4,0,0,1-.11.25l-.38.48c-.05.08-.11.15-.18.15s-1.13-1.06-2.18-1.06c-1.94,0-2.43,1.85-2.43,4.91,0,3.33.72,5.51,2.56,5.51,1,0,2.05-1.06,2.18-1.06s.12.09.18.14Z"/><path class="cls-1" d="M452.81,94.69c-2.43,0-3.47-2-3.47-4.54s1-4.61,3.65-4.61,3.51,2,3.51,4.52S455.44,94.69,452.81,94.69ZM455,90c0-1.76-.49-3.38-2.11-3.38s-2.11,1.55-2.11,3.33c0,2.05.47,3.58,2.13,3.58S455,92.11,455,90Z"/><path class="cls-1" d="M463.63,86c0-.13.05-.2.13-.22l.9-.21a1,1,0,0,1,.21,0c.13,0,.13.14.13.23v6.41a2.67,2.67,0,0,0,.2,1.19,3.87,3.87,0,0,1,.34.69c0,.07-.09.1-.16.14l-.7.43c-.08,0-.11.06-.15.06-.27,0-.47-.65-.66-1.07a4.29,4.29,0,0,1-2.51,1.07c-2.43,0-2.63-1.41-2.63-2.7V86a.2.2,0,0,1,.13-.22l.9-.21a.93.93,0,0,1,.22,0c.12,0,.12.14.12.23V92a1.3,1.3,0,0,0,1.48,1.46,4.37,4.37,0,0,0,2.05-.92Z"/><path class="cls-1" d="M474.27,94.22c0,.14-.07.21-.22.21h-.93c-.15,0-.22-.07-.22-.21v-6c0-.78-.2-1.46-1.17-1.46a3.51,3.51,0,0,0-2.38,1.1v6.37a.19.19,0,0,1-.21.21h-.94a.19.19,0,0,1-.21-.21V88a3.55,3.55,0,0,0-.08-1.07,6.57,6.57,0,0,0-.28-.75s0-.07.09-.13l.81-.45a.31.31,0,0,1,.14-.07c.32,0,.54,1.08.56,1.22a4.61,4.61,0,0,1,2.9-1.22c2,0,2.14,1.4,2.14,2.7Z"/><path class="cls-1" d="M482.05,93.77a1.35,1.35,0,0,1,0,.18c0,.23-1.35.74-2.32.74a2.23,2.23,0,0,1-1.69-.63,2.84,2.84,0,0,1-.53-2V86.91h-1.35c-.12,0-.12-.13-.12-.22V86c0-.13,0-.22.12-.22h1.35V83.33c0-.11.08-.18.2-.22l1-.27.12,0c.09,0,.09.09.09.2v2.77h2.67c.11,0,.2,0,.2.13s0,.07,0,.12l-.24.71a.24.24,0,0,1-.23.16h-2.38V92c0,.72,0,1.46,1.08,1.46a5.33,5.33,0,0,0,1.73-.49.13.13,0,0,1,.13.11Z"/><path class="cls-1" d="M487.73,93.32a25.12,25.12,0,0,1-1.24,3.58,2.31,2.31,0,0,1-2.12,1.32c-1,0-2.27-.63-2.27-.9a.2.2,0,0,1,0-.11l.36-.72a.13.13,0,0,1,.13-.09c.2,0,.85.7,1.73.7.66,0,1.08-.67,1.37-1.53l.37-1.14h-.64c-.17,0-.2,0-.24-.16l-2.79-7.83a.51.51,0,0,1,0-.25c0-.09.07-.11.14-.15l.76-.3a.68.68,0,0,1,.25-.07.19.19,0,0,1,.2.14L486,92.62a12.1,12.1,0,0,1,.36,1.29h0c.07-.43.16-.83.27-1.26l1.8-6.84a.18.18,0,0,1,.2-.14.68.68,0,0,1,.25.07l.76.3c.07,0,.14.06.14.15a1.71,1.71,0,0,1,0,.25Z"/><path id="Right_Arrow" data-name="Right Arrow" class="cls-2" d="M100.48,13.65,71.39,8,66.08,36.85l9.76-6.58.45-.3A29.83,29.83,0,0,1,45.57,76.36l-4.5,16.81A47.21,47.21,0,0,0,90.7,20.24Z"/><path id="Left_Arrow" data-name="Left Arrow" class="cls-3" d="M52,0A47.2,47.2,0,0,0,10.9,70.51h0l0,.06,0,.06h0L0,78,29.08,83.7l5.65-29.08-9.29,6.26a29.81,29.81,0,0,1,33.5-42.66l3.76-17A46.91,46.91,0,0,0,52,0Z"/><path class="cls-4" d="M100.33,87.87a1.4,1.4,0,0,0-1.4-1.4H55.08v-17h26.4l-30-58.87L21.7,69.45H47.55v17H5a1.4,1.4,0,1,0,0,2.8h.14c.16,0,.17.18.39.18H98.57a3.63,3.63,0,0,0,1-.44,1.33,1.33,0,0,0,.77-1.14Z"/><path class="cls-5" d="M100.33,87.87a1.4,1.4,0,0,0-1.4-1.4H55.08v-17h26.4l-30-58.87L21.7,69.45H47.55v17H5a1.4,1.4,0,1,0,0,2.8h.14c.16,0-.23,0,0,0l93.44.18a2.4,2.4,0,0,0,1.13-.32,1.39,1.39,0,0,0,.63-1.26Z"/></svg>