<svg id="Layer_1" data-name="Layer 1" xmlns="http://www.w3.org/2000/svg" xmlns:xlink="http://www.w3.org/1999/xlink" viewBox="0 0 490.09 98.93"><defs><style>.cls-1,.cls-2{fill:#231f20;}.cls-2{font-size:18px;font-family:OfficinaSansStd-Book, ITC Officina Sans Std;}.cls-3{fill:url(#linear-gradient);}.cls-4{isolation:isolate;fill:url(#linear-gradient-2);}.cls-5{fill:#008a5e;}.cls-6{fill:none;stroke:#fff;stroke-width:1.29px;}</style><linearGradient id="linear-gradient" x1="70.77" y1="94.44" x2="70.77" y2="8" gradientUnits="userSpaceOnUse"><stop offset="0" stop-color="#ffdcb3"/><stop offset="1" stop-color="#e48225"/></linearGradient><linearGradient id="linear-gradient-2" x1="31.35" y1="0" x2="31.35" y2="83.7" xlink:href="#linear-gradient"/></defs><title>LRC Logo Banner_2</title><path class="cls-1" d="M147.43,29.65v7.2H126.87V7.52h9V29.65Z"/><path class="cls-1" d="M172.77,36.85h-8.16a14.54,14.54,0,0,1-.3-3.05,7.87,7.87,0,0,1-7,3.5q-3.87,0-5.79-2a6.33,6.33,0,0,1-1.92-4.53,6.5,6.5,0,0,1,3.15-5.6q3.14-2.13,11.16-2.57v-.49a2.23,2.23,0,0,0-.66-1.91,3.24,3.24,0,0,0-1.92-.47c-2,0-3.08.79-3.31,2.38l-7.82-.73q1.68-6.85,11.41-6.85a21,21,0,0,1,4.85.52,8.09,8.09,0,0,1,3.51,1.65,5.72,5.72,0,0,1,1.73,2.36,17.1,17.1,0,0,1,.44,4.79v8.72A12.18,12.18,0,0,0,172.77,36.85Zm-8.89-10.23c-3.66.39-5.48,1.56-5.48,3.5,0,1.32.72,2,2.17,2a3.46,3.46,0,0,0,2.34-.82c.64-.54,1-1.74,1-3.61Z"/><path class="cls-1" d="M198.37,36.85H189.8V23.1a3,3,0,0,0-.53-2.17,1.88,1.88,0,0,0-1.32-.48q-2.34,0-2.34,3.27V36.85H177V15h8v3.09q1.75-3.54,6.29-3.54a8.2,8.2,0,0,1,4,.91,5.45,5.45,0,0,1,2.35,2.36,12.64,12.64,0,0,1,.71,5Z"/><path class="cls-1" d="M224.7,36.85h-8V34a6.17,6.17,0,0,1-5.89,3.35,7.46,7.46,0,0,1-6.13-3c-1.57-2-2.36-4.83-2.36-8.58a13.43,13.43,0,0,1,2.37-8.36,7.48,7.48,0,0,1,6.25-3.09,6.73,6.73,0,0,1,5.35,2.47V7.52h8.44Zm-8.44-14c0-2-.81-2.95-2.43-2.95a2.2,2.2,0,0,0-2.22,1.87,17.15,17.15,0,0,0-.53,4.58q0,5.31,2.71,5.31a2.23,2.23,0,0,0,1.75-.84,3.85,3.85,0,0,0,.72-2.56Z"/><path class="cls-1" d="M227.76,30.66l6.77-.92q.58,2.36,4.6,2.36,3.33,0,3.33-1.29a1,1,0,0,0-.65-.87,12.55,12.55,0,0,0-3.05-.63q-6.66-.93-8.31-2.89A6.65,6.65,0,0,1,228.79,22a6.43,6.43,0,0,1,2.8-5.42,12,12,0,0,1,7.32-2.07q8,0,10.14,5.73l-6.48,1.23c-.61-1.29-1.87-1.94-3.81-1.94a4.37,4.37,0,0,0-2,.38c-.45.25-.68.5-.68.74,0,.72.69,1.15,2.07,1.31a41.88,41.88,0,0,1,7.28,1.22,6.86,6.86,0,0,1,3.26,2.28,6.05,6.05,0,0,1,1.36,4,6.61,6.61,0,0,1-3,5.7q-3,2.12-8.26,2.11Q229.88,37.3,227.76,30.66Z"/><path class="cls-1" d="M266.66,28l7.31.62a9.83,9.83,0,0,1-3.22,6.23,10.31,10.31,0,0,1-7.16,2.41,10.76,10.76,0,0,1-11.26-11.22,11.51,11.51,0,0,1,3.1-8.28,10.65,10.65,0,0,1,8.07-3.25A10.41,10.41,0,0,1,270.68,17a9.36,9.36,0,0,1,3.18,6.22l-7.5.62q-.48-3.47-2.62-3.46a2.1,2.1,0,0,0-2,1.26A10.65,10.65,0,0,0,261.1,26a9.48,9.48,0,0,0,.63,4,2.25,2.25,0,0,0,2.2,1.29Q266.22,31.28,266.66,28Z"/><path class="cls-1" d="M299,36.85h-8.17a14.54,14.54,0,0,1-.3-3.05,7.87,7.87,0,0,1-7,3.5q-3.87,0-5.79-2a6.3,6.3,0,0,1-1.93-4.53,6.5,6.5,0,0,1,3.15-5.6q3.15-2.13,11.16-2.57v-.49a2.25,2.25,0,0,0-.65-1.91,3.26,3.26,0,0,0-1.93-.47c-2,0-3.08.79-3.31,2.38l-7.82-.73q1.68-6.85,11.41-6.85a21.12,21.12,0,0,1,4.86.52,8.1,8.1,0,0,1,3.5,1.65,5.64,5.64,0,0,1,1.73,2.36,17.1,17.1,0,0,1,.44,4.79v8.72A11.94,11.94,0,0,0,299,36.85Zm-8.9-10.23q-5.48.59-5.48,3.5c0,1.32.73,2,2.17,2a3.46,3.46,0,0,0,2.34-.82c.65-.54,1-1.74,1-3.61Z"/><path class="cls-1" d="M311.84,43.74h-8.57V15h7.89v3.09q1.65-3.54,6.16-3.54a7.13,7.13,0,0,1,6.12,3q2.22,3,2.22,8.28a13.81,13.81,0,0,1-2.27,8.33,7,7,0,0,1-6,3.1,6.33,6.33,0,0,1-5.57-2.79Zm0-14.88a3.42,3.42,0,0,0,.67,2.26,2,2,0,0,0,1.65.81,2.13,2.13,0,0,0,2.13-1.43,12.33,12.33,0,0,0,.58-4.39,12.09,12.09,0,0,0-.67-4.81,2.13,2.13,0,0,0-2-1.38,2.56,2.56,0,0,0-1.58.62,2.45,2.45,0,0,0-.79,2Z"/><path class="cls-1" d="M344,29l8,.53A9.46,9.46,0,0,1,348.37,35a12.51,12.51,0,0,1-7.88,2.27,12.11,12.11,0,0,1-8.81-3.19,10.6,10.6,0,0,1-3.28-7.92,11.81,11.81,0,1,1,23.61.19c0,.31,0,.72,0,1.25H337.36a5.63,5.63,0,0,0,.73,3.06A3.55,3.55,0,0,0,344,29Zm-.58-5.68a4,4,0,0,0-.89-3,3.14,3.14,0,0,0-2.15-.76q-3,0-3,3.73Z"/><path class="cls-1" d="M153,72.85H143l-4.28-11.22h-2.84V72.85h-9V43.52h15.32q5.07,0,7.87,2.38a7.8,7.8,0,0,1,2.81,6.26,9.4,9.4,0,0,1-1,4.48,8.61,8.61,0,0,1-4.16,3.42Zm-17.1-17.49h3.85a4.77,4.77,0,0,0,2.73-.71,2.38,2.38,0,0,0,1-2.08c0-1.88-1.16-2.82-3.46-2.82h-4.15Z"/><path class="cls-1" d="M172.33,65l8,.53A9.41,9.41,0,0,1,176.7,71a12.48,12.48,0,0,1-7.87,2.27A12.1,12.1,0,0,1,160,70.11a10.61,10.61,0,0,1-3.29-7.92,11.82,11.82,0,1,1,23.62.19c0,.31,0,.72,0,1.25H165.69a5.72,5.72,0,0,0,.73,3.06A3.55,3.55,0,0,0,172.33,65Zm-.58-5.68a3.93,3.93,0,0,0-.89-3,3.12,3.12,0,0,0-2.15-.76q-3,0-3,3.73Z"/><path class="cls-1" d="M197.84,64l7.3.62a9.77,9.77,0,0,1-3.21,6.23,10.35,10.35,0,0,1-7.17,2.41,10.74,10.74,0,0,1-11.25-11.22,11.51,11.51,0,0,1,3.1-8.28,10.65,10.65,0,0,1,8.07-3.25A10.39,10.39,0,0,1,201.85,53,9.36,9.36,0,0,1,205,59.23l-7.5.62q-.47-3.47-2.62-3.46a2.12,2.12,0,0,0-2,1.26,10.65,10.65,0,0,0-.63,4.37,9.44,9.44,0,0,0,.63,4,2.26,2.26,0,0,0,2.21,1.29Q197.4,67.28,197.84,64Z"/><path class="cls-1" d="M229.05,51l-8.57,23.67a9.49,9.49,0,0,1-2.84,4.2q-1.84,1.51-5.69,1.52c-.61,0-2-.07-4.3-.19V74.12a20.69,20.69,0,0,0,3.1.25c2.46,0,3.69-.54,3.69-1.63a4.49,4.49,0,0,0-.36-1.48L206.24,51h9.17L219,62.66,222.79,51Z"/><path class="cls-1" d="M245.32,64l7.3.62a9.77,9.77,0,0,1-3.21,6.23,10.34,10.34,0,0,1-7.16,2.41A10.74,10.74,0,0,1,231,62.08a11.51,11.51,0,0,1,3.1-8.28,10.65,10.65,0,0,1,8.07-3.25A10.41,10.41,0,0,1,249.34,53a9.39,9.39,0,0,1,3.17,6.22l-7.49.62q-.48-3.47-2.62-3.46a2.1,2.1,0,0,0-2,1.26,10.45,10.45,0,0,0-.64,4.37,9.26,9.26,0,0,0,.64,4,2.24,2.24,0,0,0,2.2,1.29Q244.89,67.28,245.32,64Z"/><path class="cls-1" d="M264.57,43.52V72.85h-8.44V43.52Z"/><path class="cls-1" d="M278.62,42.6v6.79h-8.57V42.6Zm0,8.4V72.85h-8.57V51Z"/><path class="cls-1" d="M305.43,72.85h-8.57V59.1a3.05,3.05,0,0,0-.52-2.17,1.92,1.92,0,0,0-1.33-.48q-2.34,0-2.34,3.27V72.85H284.1V51h7.95v3.09q1.76-3.54,6.29-3.54a8.17,8.17,0,0,1,4,.91,5.53,5.53,0,0,1,2.36,2.36,12.68,12.68,0,0,1,.7,5Z"/><path class="cls-1" d="M333.69,46l-.22,5.87-.41,0c-.77,0-1.32-.07-1.65-.07-1.33,0-2.13.27-2.41.8a6.11,6.11,0,0,1,2.45,4.88,5.56,5.56,0,0,1-2.65,5,13.29,13.29,0,0,1-7.21,1.69l-1.12,0-1,0c-1.39,0-2.09.35-2.09,1.07s.62,1,1.85,1l7,.3q3.84.17,5.64,2.15a6.69,6.69,0,0,1,1.79,4.62A6.09,6.09,0,0,1,331,78.4q-2.67,2-10.4,2-11.92,0-11.93-5.48,0-3,3.16-4.17a4.14,4.14,0,0,1-2-3.41q0-3.22,4.19-4.86a5.21,5.21,0,0,1-3.5-5.07,5.67,5.67,0,0,1,2.83-5,14.43,14.43,0,0,1,7.78-1.8,17.34,17.34,0,0,1,4.1.45c.5-3.42,2.32-5.14,5.44-5.14C331.37,45.86,332.38,45.92,333.69,46ZM319,72.56l-.95,0c-1.47,0-2.21.46-2.21,1.38s.56,1.39,1.69,1.63a21.55,21.55,0,0,0,4.5.37,8.15,8.15,0,0,0,3.43-.45,1.41,1.41,0,0,0,.76-1.25,1.33,1.33,0,0,0-.35-.93,2.51,2.51,0,0,0-1.63-.44Zm2.19-12.41q2.49,0,2.49-2.64c0-1.81-.85-2.71-2.55-2.71s-2.54.92-2.54,2.75A2.3,2.3,0,0,0,321.14,60.15Z"/><path class="cls-1" d="M365.34,61.65l8.22.5a12,12,0,0,1-4,8.27,13.69,13.69,0,0,1-18-1.07q-3.66-4-3.67-10.92t3.48-11.13q3.48-4.23,9.71-4.23,5.82,0,8.95,3.22a13.31,13.31,0,0,1,3.53,8.55l-8.4.45A6.48,6.48,0,0,0,364,51a3.44,3.44,0,0,0-2.66-1.31q-4.25,0-4.25,8.55,0,4.8,1.11,6.51a3.47,3.47,0,0,0,3.1,1.72Q364.91,66.51,365.34,61.65Z"/><path class="cls-1" d="M392,65l8,.53A9.41,9.41,0,0,1,396.33,71a12.5,12.5,0,0,1-7.87,2.27,12.08,12.08,0,0,1-8.81-3.19,10.61,10.61,0,0,1-3.29-7.92,11.81,11.81,0,1,1,23.61.19c0,.31,0,.72,0,1.25H385.32a5.63,5.63,0,0,0,.73,3.06A3.55,3.55,0,0,0,392,65Zm-.58-5.68a4,4,0,0,0-.89-3,3.14,3.14,0,0,0-2.15-.76q-3,0-3,3.73Z"/><path class="cls-1" d="M425.62,72.85h-8.57V59.1a3.05,3.05,0,0,0-.52-2.17,1.92,1.92,0,0,0-1.33-.48q-2.34,0-2.34,3.27V72.85h-8.57V51h7.95v3.09q1.75-3.54,6.29-3.54a8.17,8.17,0,0,1,4,.91,5.53,5.53,0,0,1,2.36,2.36,12.68,12.68,0,0,1,.7,5Z"/><path class="cls-1" d="M444.6,51v5.56h-4.37v8.06c0,1.1.21,1.76.63,2a2.92,2.92,0,0,0,1.29.31,10.34,10.34,0,0,0,2.45-.37v6.1a26.06,26.06,0,0,1-5,.5q-3.94,0-5.81-1.7c-1.24-1.13-1.86-2.94-1.86-5.41l0-2.56v-6.9H428.7V51H432l.13-7.11,8.14-.13V51Z"/><path class="cls-1" d="M462.86,65l8,.53A9.41,9.41,0,0,1,467.23,71a12.48,12.48,0,0,1-7.87,2.27,12.1,12.1,0,0,1-8.81-3.19,10.61,10.61,0,0,1-3.29-7.92,12.18,12.18,0,0,1,20.38-8.46,11.59,11.59,0,0,1,3.23,8.65c0,.31,0,.72,0,1.25H456.22a5.63,5.63,0,0,0,.73,3.06A3.55,3.55,0,0,0,462.86,65Zm-.58-5.68a4,4,0,0,0-.89-3,3.14,3.14,0,0,0-2.15-.76q-3,0-3,3.73Z"/><path class="cls-1" d="M483.4,72.85h-8.21V51h7.13v4.51q1.23-4.92,5.7-4.92a11.7,11.7,0,0,1,1.24.09V58.3a7.12,7.12,0,0,0-1.61-.21q-4.25,0-4.25,4.75Z"/><text class="cls-2" transform="translate(123.38 94.44)">A not-for-profit facility serving Champaign County</text><path id="Right_Arrow" data-name="Right Arrow" class="cls-3" d="M100.48,13.65,71.39,8,66.08,36.85l9.76-6.58.45-.3A29.83,29.83,0,0,1,45.57,76.36l-4.5,16.81A47.21,47.21,0,0,0,90.7,20.24Z"/><path id="Left_Arrow" data-name="Left Arrow" class="cls-4" d="M52,0A47.2,47.2,0,0,0,10.9,70.51h0l0,.06,0,.06h0L0,78,29.08,83.7l5.65-29.08-9.29,6.26a29.81,29.81,0,0,1,33.5-42.66l3.76-17A46.91,46.91,0,0,0,52,0Z"/><path class="cls-5" d="M100.33,87.87a1.4,1.4,0,0,0-1.4-1.4H55.08v-17h26.4l-30-58.87L21.7,69.45H47.55v17H5a1.4,1.4,0,1,0,0,2.8h.14c.16,0,.17.18.39.18H98.57a3.63,3.63,0,0,0,1-.44,1.33,1.33,0,0,0,.77-1.14Z"/><path class="cls-6" d="M100.33,87.87a1.4,1.4,0,0,0-1.4-1.4H55.08v-17h26.4l-30-58.87L21.7,69.45H47.55v17H5a1.4,1.4,0,1,0,0,2.8h.14c.16,0-.23,0,0,0l93.44.18a2.4,2.4,0,0,0,1.13-.32,1.39,1.39,0,0,0,.63-1.26Z"/></svg>